<svg width="312" height="27" viewBox="0 0 312 27" fill="none" xmlns="http://www.w3.org/2000/svg">
<path d="M0 19.4453V6.93945C0 5.50456 0.531901 4.10677 1.5957 2.74609C3.00586 0.940104 4.91081 0.0247396 7.31055 0V5.23242C6.27148 5.25716 5.60352 5.73958 5.30664 6.67969C5.25716 6.77865 5.23242 6.86523 5.23242 6.93945V19.4453C5.23242 19.8411 5.44271 20.2246 5.86328 20.5957C6.25911 20.9421 6.74154 21.1152 7.31055 21.1152V26.3477C4.53971 26.3477 2.44922 25.1849 1.03906 22.8594C0.346354 21.6719 0 20.5339 0 19.4453ZM9.31445 26.3477V21.1152C9.31445 21.1152 9.59896 21.0039 10.168 20.7812C10.5143 20.5339 10.7493 20.2741 10.873 20.002C10.9967 19.6803 11.0586 19.2227 11.0586 18.6289V18.1836L16.1797 19.4082C16.1797 21.5605 15.3138 23.3418 13.582 24.752C12.2708 25.8158 10.8483 26.3477 9.31445 26.3477ZM9.31445 5.23242V0C11.1204 0 12.7533 0.791667 14.2129 2.375C15.5241 3.8099 16.1797 5.35612 16.1797 7.01367L11.0586 8.34961V7.79297C11.0586 7.17448 10.9967 6.7168 10.873 6.41992C10.7741 6.17253 10.5885 5.94987 10.3164 5.75195C10.069 5.55404 9.84635 5.41797 9.64844 5.34375L9.31445 5.23242ZM20.232 18.9258V6.7168C20.232 5.4056 20.7887 4.06966 21.902 2.70898C23.3863 0.927734 25.2665 0.0247396 27.5426 0V5.23242C26.5283 5.25716 25.8603 5.82617 25.5387 6.93945C25.4892 7.11263 25.4645 7.23633 25.4645 7.31055V18.9258C25.4645 19.9401 26.0211 20.6328 27.1344 21.0039C27.3076 21.0534 27.4312 21.0781 27.5055 21.0781V26.3477C26.0953 26.3477 24.6852 25.8405 23.275 24.8262C21.2711 23.3418 20.2568 21.375 20.232 18.9258ZM29.5465 26.3477V21.0781C29.9423 21.0781 30.3876 20.8678 30.8824 20.4473C31.3525 20.0267 31.5999 19.5195 31.6246 18.9258V7.31055C31.6246 6.86523 31.4143 6.39518 30.9937 5.90039C30.5979 5.47982 30.1155 5.25716 29.5465 5.23242V0C32.0452 0 34.0491 1.07617 35.5582 3.22852C36.4241 4.46549 36.857 5.62826 36.857 6.7168V18.9258C36.857 21.6719 35.6324 23.7747 33.1832 25.2344C31.8967 25.9766 30.6845 26.3477 29.5465 26.3477ZM41.7258 26.1621V7.9043H42.0227L46.9582 15.8457V26.1621H41.7258ZM41.7258 3.59961V0.185547H45.9934L58.2395 19.9277V26.1621H55.7531L41.7258 3.59961ZM53.007 7.68164V0.185547H58.2395V15.623H57.9426L53.007 7.68164ZM63.2566 26.1621V0.185547H76.7645V5.38086H68.4891V10.6504H73.2762V15.8828H68.4891V20.9297H76.7645V26.1621H63.2566ZM81.4848 19.4453V6.93945C81.4848 5.50456 82.0167 4.10677 83.0805 2.74609C84.4906 0.940104 86.3956 0.0247396 88.7953 0V5.23242C87.7562 5.25716 87.0883 5.73958 86.7914 6.67969C86.7419 6.77865 86.7172 6.86523 86.7172 6.93945V19.4453C86.7172 19.8411 86.9275 20.2246 87.348 20.5957C87.7439 20.9421 88.2263 21.1152 88.7953 21.1152V26.3477C86.0245 26.3477 83.934 25.1849 82.5238 22.8594C81.8311 21.6719 81.4848 20.5339 81.4848 19.4453ZM90.7992 26.3477V21.1152C90.7992 21.1152 91.0837 21.0039 91.6527 20.7812C91.9991 20.5339 92.2341 20.2741 92.3578 20.002C92.4815 19.6803 92.5434 19.2227 92.5434 18.6289V18.1836L97.6645 19.4082C97.6645 21.5605 96.7986 23.3418 95.0668 24.752C93.7556 25.8158 92.3331 26.3477 90.7992 26.3477ZM90.7992 5.23242V0C92.6052 0 94.238 0.791667 95.6977 2.375C97.0089 3.8099 97.6645 5.35612 97.6645 7.01367L92.5434 8.34961V7.79297C92.5434 7.17448 92.4815 6.7168 92.3578 6.41992C92.2589 6.17253 92.0733 5.94987 91.8012 5.75195C91.5538 5.55404 91.3311 5.41797 91.1332 5.34375L90.7992 5.23242ZM100.863 5.30664V0.185547H116.932V5.30664H111.514V26.1621H106.281V5.30664H100.863ZM120.576 26.1621L125.363 4.56445H125.92L128.146 14.9551L125.697 26.1621H120.576ZM128.48 23.0078L129.593 17.8867H130.929L126.996 0.185547H132.154L138.277 26.1621H133.082L132.339 23.0078H128.48Z" fill="black"/>
<path d="M152.245 5.30664V0.185547H168.313V5.30664H162.895V26.1621H157.663V5.30664H152.245ZM172.329 26.1621V0.185547H185.836V5.38086H177.561V10.6504H182.348V15.8828H177.561V20.9297H185.836V26.1621H172.329ZM190.631 26.1621V0.185547H195.863V10.5391H197.311V15.6602H195.863V26.1621H190.631ZM199.352 15.6602V10.5391H200.799V0.185547H206.031V26.1621H200.799V15.6602H199.352ZM210.603 19V0.185547H215.836V19C215.86 20.0143 216.429 20.6823 217.543 21.0039C217.716 21.0534 217.839 21.0781 217.914 21.0781V26.3477C216.479 26.3477 215.044 25.8405 213.609 24.8262C211.63 23.3665 210.628 21.4245 210.603 19ZM219.918 26.3477V21.0781C220.363 21.0781 220.833 20.8678 221.328 20.4473C221.748 20.0514 221.971 19.569 221.996 19V0.185547H227.191V19C227.191 21.7956 225.954 23.8861 223.48 25.2715C222.243 25.9889 221.056 26.3477 219.918 26.3477ZM231.503 26.1621L236.29 4.56445H236.847L239.073 14.9551L236.624 26.1621H231.503ZM239.407 23.0078L240.521 17.8867H241.857L237.923 0.185547H243.081L249.204 26.1621H244.009L243.267 23.0078H239.407ZM253.22 19.4453V6.93945C253.22 5.50456 253.751 4.10677 254.815 2.74609C256.225 0.940104 258.13 0.0247396 260.53 0V5.23242C259.491 5.25716 258.823 5.73958 258.526 6.67969C258.477 6.77865 258.452 6.86523 258.452 6.93945V19.4453C258.452 19.8411 258.662 20.2246 259.083 20.5957C259.479 20.9421 259.961 21.1152 260.53 21.1152V26.3477C257.759 26.3477 255.669 25.1849 254.259 22.8594C253.566 21.6719 253.22 20.5339 253.22 19.4453ZM262.534 26.3477V21.1152C262.534 21.1152 262.818 21.0039 263.387 20.7812C263.734 20.5339 263.969 20.2741 264.093 20.002C264.216 19.6803 264.278 19.2227 264.278 18.6289V18.1836L269.399 19.4082C269.399 21.5605 268.533 23.3418 266.802 24.752C265.49 25.8158 264.068 26.3477 262.534 26.3477ZM262.534 5.23242V0C264.34 0 265.973 0.791667 267.432 2.375C268.744 3.8099 269.399 5.35612 269.399 7.01367L264.278 8.34961V7.79297C264.278 7.17448 264.216 6.7168 264.093 6.41992C263.994 6.17253 263.808 5.94987 263.536 5.75195C263.289 5.55404 263.066 5.41797 262.868 5.34375L262.534 5.23242ZM273.229 26.1621L278.016 4.56445H278.573L280.799 14.9551L278.35 26.1621H273.229ZM281.133 23.0078L282.246 17.8867H283.582L279.649 0.185547H284.807L290.93 26.1621H285.735L284.993 23.0078H281.133ZM295.094 26.1621V7.9043H295.391L300.326 15.8457V26.1621H295.094ZM295.094 3.59961V0.185547H299.361L311.607 19.9277V26.1621H309.121L295.094 3.59961ZM306.375 7.68164V0.185547H311.607V15.623H311.311L306.375 7.68164Z" fill="#2563EB"/>
</svg>